<?xml version="1.0" standalone="no"?>
<!DOCTYPE svg PUBLIC "-//W3C//DTD SVG 20010904//EN"
 "http://www.w3.org/TR/2001/REC-SVG-20010904/DTD/svg10.dtd">
<svg version="1.0" xmlns="http://www.w3.org/2000/svg"
 width="300.000000pt" height="300.000000pt" viewBox="0 0 300.000000 300.000000"
 preserveAspectRatio="xMidYMid meet">
<metadata>
Created by potrace 1.15, written by Peter Selinger 2001-2017
</metadata>
<g transform="translate(0.000000,300.000000) scale(0.100000,-0.100000)"
fill="#000000" stroke="none">
<path d="M1315 2993 c-68 -7 -216 -43 -295 -69 -436 -149 -795 -508 -944 -944
-59 -175 -70 -248 -70 -480 0 -236 11 -306 76 -495 150 -437 507 -789 948
-935 168 -56 234 -65 470 -65 245 0 293 7 475 67 227 74 404 185 586 367 183
184 291 356 367 586 60 182 67 230 67 475 0 236 -9 302 -65 470 -146 441 -498
798 -935 948 -169 59 -262 74 -460 77 -99 2 -198 1 -220 -2z m356 -154 c537
-69 980 -449 1131 -969 65 -225 64 -512 -2 -748 -119 -427 -495 -803 -922
-922 -236 -66 -523 -67 -748 -2 -462 134 -824 508 -939 971 -95 381 -18 793
207 1111 64 90 202 231 294 301 276 207 637 302 979 258z"/>
<path d="M741 2413 c8 -10 141 -170 297 -356 155 -185 282 -341 282 -345 -1
-4 -12 -20 -25 -37 -21 -26 -26 -28 -38 -15 -8 8 -108 128 -223 265 -115 138
-246 294 -291 348 l-83 98 0 -846 0 -845 50 0 50 0 0 690 c0 380 4 690 8 690
5 0 23 -18 40 -39 l32 -40 0 -650 0 -651 55 0 55 0 0 586 0 586 40 -48 40 -49
0 -537 0 -538 49 0 c46 0 51 3 87 47 21 27 111 134 198 238 88 105 161 192
163 195 2 2 7 -1 11 -7 4 -6 94 -115 201 -242 l194 -231 53 0 54 0 0 546 0
545 33 39 c17 22 35 40 40 40 4 0 7 -263 7 -585 l0 -585 50 0 50 0 0 653 0
652 40 45 39 45 1 -697 0 -698 55 0 55 0 0 852 c-1 707 -3 849 -14 837 -7 -8
-94 -111 -193 -229 -715 -855 -1065 -1270 -1069 -1270 -2 0 -4 28 -4 63 l0 62
252 300 c138 165 333 397 432 515 285 339 490 584 505 603 12 16 8 17 -60 17
l-74 -1 -164 -197 c-360 -431 -828 -988 -858 -1022 l-32 -35 -1 65 0 65 218
259 c119 142 331 394 470 560 l253 301 -73 3 c-68 3 -73 2 -94 -25 -49 -62
-367 -438 -373 -441 -4 -1 -91 98 -193 221 -103 123 -194 229 -202 236 -9 7
-40 11 -81 9 l-66 -3 226 -270 c125 -148 229 -276 232 -283 3 -7 -7 -26 -22
-42 l-27 -28 -235 281 c-318 381 -283 347 -366 347 -65 0 -69 -1 -56 -17z
m1124 -1033 c75 -91 75 -91 75 -150 0 -33 -3 -60 -7 -59 -9 0 -185 211 -191
227 -3 9 35 69 45 71 2 1 36 -40 78 -89z m-62 -234 l137 -165 0 -60 c0 -34 -3
-61 -7 -60 -11 0 -323 376 -323 387 0 12 39 62 48 62 4 0 69 -74 145 -164z"/>
</g>
</svg>
